<?xml version="1.0" encoding="utf-8"?><!-- Generator: Adobe Illustrator 18.1.1, SVG Export Plug-In . SVG Version: 6.00 Build 0)  --><svg xmlns="http://www.w3.org/2000/svg" xmlns:xlink="http://www.w3.org/1999/xlink" viewBox="0 0 50 50" width="50px" height="50px"><path fill="none" stroke="#000000" stroke-width="2" stroke-miterlimit="10" d="M25,25c0,0,6-10,14-10c5.5,0,10,4.5,10,10s-4.5,10-10,10C31,35,25,25,25,25z"/><path fill="none" stroke="#000000" stroke-width="2" stroke-miterlimit="10" d="M25,25c0,0-6,10-14,10C5.5,35,1,30.5,1,25s4.5-10,10-10C19.2,15,25,25,25,25z"/><rect x="7" y="24" width="8" height="2"/><rect x="35" y="24" width="8" height="2"/><rect x="38" y="21" width="2" height="8"/></svg>