<?xml version="1.0" standalone="no"?>
<!DOCTYPE svg PUBLIC "-//W3C//DTD SVG 20010904//EN"
 "http://www.w3.org/TR/2001/REC-SVG-20010904/DTD/svg10.dtd">
<svg version="1.0" xmlns="http://www.w3.org/2000/svg"
 width="284.000000pt" height="300.000000pt" viewBox="0 0 284.000000 300.000000"
 preserveAspectRatio="xMidYMid meet">

<g transform="translate(0.000000,300.000000) scale(0.100000,-0.100000)"
fill="#000000" stroke="none">
<path d="M1058 2981 c-62 -20 -104 -46 -160 -99 -24 -23 -42 -33 -53 -28 -14
5 -16 2 -11 -18 5 -19 -1 -28 -32 -50 -49 -34 -107 -52 -212 -66 -47 -7 -97
-19 -112 -28 -99 -58 -33 -234 112 -300 30 -14 57 -26 59 -28 2 -2 -8 -17 -22
-33 -14 -17 -35 -60 -47 -96 -12 -36 -34 -80 -48 -97 -20 -23 -22 -30 -9 -25
18 7 24 -10 10 -29 -5 -5 2 0 13 12 12 13 30 44 39 71 37 100 64 152 89 168
25 17 27 16 60 -13 34 -30 51 -34 217 -58 52 -8 98 -39 115 -80 28 -67 4 -133
-221 -611 -119 -252 -131 -273 -154 -273 -35 -1 -101 -32 -128 -61 -26 -29
-43 -71 -43 -108 0 -24 -8 -32 -57 -57 -43 -22 -65 -41 -88 -78 -27 -44 -30
-58 -31 -132 -1 -83 -1 -83 -41 -127 -57 -62 -85 -142 -85 -244 l0 -81 -32
-13 c-39 -17 -186 -160 -169 -166 7 -3 34 2 60 10 142 45 206 47 279 5 68 -38
147 -58 233 -58 62 0 64 -1 117 -49 109 -100 226 -136 434 -135 122 1 160 5
241 26 52 14 122 40 155 56 l60 30 70 -21 c60 -18 95 -21 269 -21 194 0 204 1
318 32 265 72 417 160 507 294 107 160 103 352 -9 480 -41 47 -136 95 -206
103 -53 7 -55 9 -55 36 0 105 -110 202 -245 216 -50 5 -53 7 -64 42 -16 56
-65 107 -134 140 -120 59 -234 50 -439 -35 -122 -51 -197 -74 -240 -74 -16 0
-28 1 -28 3 0 10 70 205 155 432 140 374 206 658 190 819 -12 130 -76 256
-163 324 -122 96 -326 137 -464 93z m164 -197 c34 -18 63 -59 73 -104 4 -19
12 -38 18 -42 12 -8 -19 -21 -70 -31 -28 -6 -32 -3 -42 23 -6 18 -17 30 -27
30 -10 0 -25 7 -35 16 -45 40 -117 -34 -90 -92 6 -15 9 -29 6 -32 -12 -13 -41
16 -54 55 -36 100 60 215 164 196 17 -3 42 -12 57 -19z m-54 -1027 c4 -36 -18
-44 -62 -23 -19 9 -53 16 -76 16 -29 0 -40 4 -37 13 3 8 22 11 59 9 34 -2 59
1 63 8 4 6 17 10 28 8 16 -2 23 -11 25 -31z m-88 -262 c0 -26 -33 -43 -53 -27
-7 6 -45 14 -84 17 -51 5 -73 12 -73 21 0 10 14 12 64 7 49 -4 69 -2 86 10 29
20 60 6 60 -28z m-97 -236 c6 -9 7 -24 4 -33 -7 -17 -47 -22 -63 -6 -5 5 -45
10 -88 12 -57 2 -81 7 -84 17 -4 12 10 13 80 7 71 -6 87 -4 98 9 16 19 39 16
53 -6z m1063 13 c7 -4 12 -33 13 -65 0 -32 2 -61 4 -65 6 -10 -11 -52 -20 -52
-4 0 -8 22 -8 50 0 38 -5 54 -23 70 -25 23 -28 40 -10 58 14 14 28 15 44 4z
m-1442 -107 c8 -21 -3 -45 -20 -45 -15 0 -18 18 -8 44 8 20 20 20 28 1z m1230
-22 c0 -13 -1 -48 -2 -78 -2 -41 -6 -55 -17 -55 -11 0 -15 12 -15 44 0 26 -6
48 -15 56 -16 13 -20 42 -8 54 4 4 19 6 33 4 19 -2 25 -9 24 -25z m-261 -35
c8 -12 8 -23 -1 -40 -6 -13 -13 -38 -14 -57 -5 -54 -28 -52 -28 3 0 24 -4 48
-10 51 -14 9 -13 38 2 53 16 16 38 12 51 -10z m-239 -20 c8 -13 6 -21 -6 -35
-9 -10 -18 -31 -20 -46 -5 -44 -22 -36 -30 13 -9 63 -1 92 25 88 11 -2 25 -11
31 -20z m-416 -101 c4 -32 -18 -45 -51 -29 -12 6 -65 13 -117 17 -100 6 -106
8 -96 23 4 6 45 8 105 5 70 -4 100 -2 106 6 13 23 50 8 53 -22z m1476 17 c13
-5 14 -17 9 -67 -3 -34 -12 -71 -19 -82 -13 -17 -14 -14 -14 32 0 36 -4 53
-15 57 -15 5 -21 47 -8 59 8 9 26 9 47 1z m-1900 -116 c8 -13 7 -24 -5 -45
-11 -19 -14 -43 -11 -72 3 -34 1 -42 -9 -39 -9 3 -15 23 -17 54 -2 27 -7 53
-13 59 -22 22 0 69 30 63 7 -2 19 -11 25 -20z m1735 -16 c6 -11 6 -24 0 -33
-5 -7 -9 -31 -9 -51 0 -44 -8 -68 -24 -68 -7 0 -10 15 -8 44 3 29 -2 52 -13
70 -14 21 -15 29 -5 41 17 20 47 19 59 -3z m-248 -58 c13 -12 15 -22 9 -42 -5
-15 -11 -48 -15 -74 -3 -26 -12 -49 -20 -52 -11 -4 -13 5 -8 44 4 35 1 54 -11
71 -20 29 -20 34 0 53 19 20 23 20 45 0z m-534 -40 c3 -8 1 -25 -5 -37 -6 -12
-13 -43 -17 -69 -8 -64 -31 -65 -26 -2 2 25 -2 57 -9 69 -17 32 -6 55 25 55
14 0 28 -7 32 -16z m272 2 c10 -12 10 -20 0 -38 -15 -27 -15 -29 -17 -85 -1
-29 -7 -43 -16 -43 -10 0 -12 12 -8 49 3 35 0 55 -13 75 -14 21 -15 29 -5 41
16 19 44 19 59 1z m-831 -42 c5 -32 -23 -50 -52 -34 -15 8 -42 10 -72 6 -63
-7 -166 5 -172 21 -3 10 20 12 100 7 85 -5 106 -3 123 10 28 22 69 17 73 -10z
m1898 -92 c-4 -4 -14 2 -21 12 -11 15 -12 23 -3 40 11 20 12 20 21 -12 6 -18
7 -36 3 -40z m-2496 -117 c0 -13 -4 -27 -10 -30 -6 -4 -10 8 -10 30 0 22 4 34
10 30 6 -3 10 -17 10 -30z m2362 -85 c-5 -101 -27 -144 -27 -51 0 43 -5 65
-19 79 -26 29 -13 64 22 60 l27 -3 -3 -85z m-1761 60 c10 -6 19 -19 19 -30 0
-25 -36 -46 -54 -31 -7 6 -66 12 -131 13 -74 2 -120 7 -122 14 -2 7 33 10 111
10 97 -1 118 2 133 17 20 20 19 20 44 7z m-404 -76 c3 -9 1 -25 -5 -35 -15
-24 -14 -55 2 -101 12 -32 12 -38 0 -38 -15 0 -32 36 -41 85 -2 17 -9 40 -15
52 -6 12 -8 29 -5 37 8 21 56 21 64 0z m1936 -25 c6 -9 7 -24 2 -35 -5 -11 -7
-40 -6 -66 2 -26 0 -56 -4 -67 -13 -41 -25 -20 -25 43 0 44 -5 67 -15 76 -18
15 -19 42 -3 58 16 16 38 12 51 -9z m-274 -58 c6 -10 7 -22 3 -25 -4 -4 -9
-46 -12 -93 -3 -57 -9 -88 -17 -91 -10 -3 -13 17 -13 76 0 59 -4 83 -15 92
-18 15 -19 32 -3 48 18 18 46 15 57 -7z m-561 -30 c2 -13 -1 -28 -7 -34 -6 -6
-11 -28 -11 -50 0 -47 -25 -47 -26 1 0 17 -6 42 -14 56 -11 21 -11 28 0 41 19
23 54 15 58 -14z m276 7 c8 -13 8 -23 -2 -38 -6 -11 -12 -44 -12 -74 0 -58 -7
-86 -21 -86 -5 0 -9 33 -9 74 0 41 -4 78 -10 81 -14 9 -12 52 3 58 20 9 39 3
51 -15z m-851 -89 c6 -9 7 -24 4 -32 -5 -14 -19 -16 -89 -11 -168 10 -208 16
-224 31 -21 21 -15 23 31 13 68 -16 211 -12 225 5 16 19 39 16 53 -6z"/>
</g>
</svg>
