<svg version="1.1" xmlns="http://www.w3.org/2000/svg" width="125px" height="193px" transform="rotate(0) scale(1, 1)">
<path d="M0 0 C1.40705233 0.13260881 2.81411677 0.26508903 4.22119141 0.39746094 C18.86250975 1.79597464 33.55268138 3.24629882 48 6.0625 C48.78141357 6.21243408 49.56282715 6.36236816 50.36791992 6.5168457 C54.29375186 7.35613669 57.074791 8.23406583 60 11 C61.00488281 13.55615234 61.00488281 13.55615234 61.703125 16.5859375 C61.9609375 17.68164062 62.21875 18.77734375 62.484375 19.90625 C62.73703125 21.0509375 62.9896875 22.195625 63.25 23.375 C63.518125 24.51195313 63.78625 25.64890625 64.0625 26.8203125 C65.16998108 31.63446493 66.17025805 36.03868053 66 41 C60.39663132 42.59866353 55.57022621 43.25151354 49.765625 43.08984375 C48.20573241 43.0694125 46.64583643 43.04923837 45.0859375 43.02929688 C42.67269833 42.98604623 40.25969857 42.93771774 37.84667969 42.88354492 C25.25194938 42.62190654 12.19556309 42.4220022 2 51 C-1.34289938 54.59361683 -2.25977079 57.27092041 -2.4375 62.0625 C-2.22733317 66.18547861 -1.97136184 68.93859689 1 72 C8.19112381 76.19587541 16.24162923 77.55647087 24.3125 79.125 C25.55451172 79.37636719 26.79652344 79.62773438 28.07617188 79.88671875 C29.30529297 80.13292969 30.53441406 80.37914063 31.80078125 80.6328125 C33.61231689 81.00841309 33.61231689 81.00841309 35.46044922 81.39160156 C38.95611284 82.07187689 38.95611284 82.07187689 42.37158203 82.13183594 C45.68333259 82.31323153 48.0009944 82.56720234 51 84 C54.0926886 88.32476653 55.63426256 92.99989805 57.25 98 C57.7207747 99.32451959 58.19599845 100.64746675 58.67578125 101.96875 C62 111.27407887 62 111.27407887 62 114 C61.2565332 114.06993164 60.51306641 114.13986328 59.74707031 114.21191406 C29.58275018 115.02425956 29.58275018 115.02425956 3.66015625 127.55859375 C-2.40263598 136.90090349 -2.16273858 150.12469231 -2.09765625 160.84765625 C-2.09553383 162.19361122 -2.09553383 162.19361122 -2.09336853 163.5667572 C-2.0878251 166.39870714 -2.07528358 169.23057445 -2.0625 172.0625 C-2.05747767 173.99674364 -2.05291606 175.93098853 -2.04882812 177.86523438 C-2.03787429 182.57685417 -2.02064953 187.28841313 -2 192 C-11.67254863 192.09763989 -21.22831132 191.94730043 -30.875 191.125 C-31.91140625 191.04636719 -32.9478125 190.96773437 -34.015625 190.88671875 C-38.90535916 190.48642565 -43.78261366 189.98529295 -48.6328125 189.2421875 C-49.82608154 189.06598877 -49.82608154 189.06598877 -51.04345703 188.88623047 C-53 188 -53 188 -54.08520508 185.89680481 C-55.17339114 182.45093672 -55.40665368 179.37565446 -55.59326172 175.76489258 C-55.6317989 175.05563566 -55.67033607 174.34637875 -55.71004105 173.6156292 C-55.8342732 171.27147154 -55.94503636 168.92691316 -56.0546875 166.58203125 C-56.13796426 164.91932647 -56.22145406 163.25663234 -56.30514526 161.59394836 C-57.1455222 144.46278807 -57.65357357 127.32289709 -58.06485748 110.17677689 C-58.12609613 107.64213174 -58.18951007 105.10754823 -58.25335693 102.57296753 C-59.0170255 72.04362731 -59.24935875 41.53877439 -59 11 C-56.18180633 9.8937117 -53.36267234 8.78992799 -50.54296875 7.6875 C-49.75724487 7.37876953 -48.971521 7.07003906 -48.1619873 6.75195312 C-31.33789716 0.18308156 -18.06280198 -1.76666555 0 0 Z " fill="#a6a6a6" transform="translate(59,1)"/>
<path d="M0 0 C0 0.66 0 1.32 0 2 C-5.60336868 3.59866353 -10.42977379 4.25151354 -16.234375 4.08984375 C-17.79426759 4.0694125 -19.35416357 4.04923837 -20.9140625 4.02929688 C-23.32730167 3.98604623 -25.74030143 3.93771774 -28.15332031 3.88354492 C-40.74805062 3.62190654 -53.80443691 3.4220022 -64 12 C-67.34289938 15.59361683 -68.25977079 18.27092041 -68.4375 23.0625 C-68.22733317 27.18547861 -67.97136184 29.93859689 -65 33 C-57.80887619 37.19587541 -49.75837077 38.55647087 -41.6875 40.125 C-39.82448242 40.50205078 -39.82448242 40.50205078 -37.92382812 40.88671875 C-36.69470703 41.13292969 -35.46558594 41.37914062 -34.19921875 41.6328125 C-32.99152832 41.88321289 -31.78383789 42.13361328 -30.53955078 42.39160156 C-27.04388716 43.07187689 -27.04388716 43.07187689 -23.62841797 43.13183594 C-20.31666741 43.31323153 -17.9990056 43.56720234 -15 45 C-11.9073114 49.32476653 -10.36573744 53.99989805 -8.75 59 C-8.2792253 60.32451959 -7.80400155 61.64746675 -7.32421875 62.96875 C-4 72.27407887 -4 72.27407887 -4 75 C-4.7434668 75.06993164 -5.48693359 75.13986328 -6.25292969 75.21191406 C-36.41724982 76.02425956 -36.41724982 76.02425956 -62.33984375 88.55859375 C-68.40263598 97.90090349 -68.16273858 111.12469231 -68.09765625 121.84765625 C-68.09553383 123.19361122 -68.09553383 123.19361122 -68.09336853 124.5667572 C-68.0878251 127.39870714 -68.07528358 130.23057445 -68.0625 133.0625 C-68.05747767 134.99674364 -68.05291606 136.93098853 -68.04882812 138.86523438 C-68.03787429 143.57685417 -68.02064953 148.28841313 -68 153 C-71.94120018 149.17887299 -74.43857103 144.62430974 -77.25 139.9375 C-77.8171875 139.01388672 -78.384375 138.09027344 -78.96875 137.13867188 C-79.49984375 136.25630859 -80.0309375 135.37394531 -80.578125 134.46484375 C-81.31144043 133.25235962 -81.31144043 133.25235962 -82.05957031 132.01538086 C-82.52508301 131.01776733 -82.52508301 131.01776733 -83 130 C-82.67 129.34 -82.34 128.68 -82 128 C-82.57650225 124.56995406 -83.96512262 121.42933933 -85.2578125 118.21484375 C-91.43120218 102.59717847 -96.55493923 87.15632977 -100.35742188 70.75878906 C-100.75365945 69.05761711 -101.16788355 67.36037975 -101.61132812 65.67089844 C-105.60237234 49.88425914 -104.8986889 30.84289257 -96.625 16.625 C-95.77500576 15.3989477 -94.90017126 14.18970003 -94 13 C-93.55914062 12.39671875 -93.11828125 11.7934375 -92.6640625 11.171875 C-83.99393932 0.1545914 -70.13302926 -5.02706881 -56.55078125 -6.71875 C-37.34085156 -8.24032859 -18.30834371 -6.06175413 0 0 Z " fill="#000000" transform="translate(125,40)"/>
<path d="M0 0 C-0.96099609 1.27230469 -0.96099609 1.27230469 -1.94140625 2.5703125 C-16.82357956 22.5950169 -23.22197599 42.99077427 -23.25 67.875 C-23.25200912 68.9207872 -23.25200912 68.9207872 -23.25405884 69.98770142 C-23.24974504 80.31626883 -22.65848315 89.97302702 -20 100 C-19.74863281 101.06476563 -19.49726563 102.12953125 -19.23828125 103.2265625 C-18.53546141 106.16427505 -17.77750696 109.08129588 -17 112 C-16.76410156 112.93457031 -16.52820313 113.86914062 -16.28515625 114.83203125 C-13.89094133 124.08534839 -10.25344473 132.60321285 -6.24609375 141.26171875 C-5.34948798 143.23200291 -4.49204387 145.22027945 -3.66015625 147.21875 C-1.67440936 151.86896462 0.65699188 156.33425449 3 160.8125 C3.47477783 161.72161133 3.94955566 162.63072266 4.4387207 163.56738281 C8.62806792 171.4880071 13.21933566 179.11615834 17.98046875 186.703125 C20 190 20 190 20 191 C10.67905189 191.27280824 1.4819729 190.8487809 -7.8125 190.125 C-8.86107178 190.04652832 -9.90964355 189.96805664 -10.98999023 189.88720703 C-15.88936281 189.48411613 -20.77676806 188.98692066 -25.63671875 188.2421875 C-26.82914185 188.06598877 -26.82914185 188.06598877 -28.0456543 187.88623047 C-30 187 -30 187 -31.08506775 184.89680481 C-32.17342356 181.4509165 -32.40665009 178.37572397 -32.59326172 174.76489258 C-32.6317989 174.05563566 -32.67033607 173.34637875 -32.71004105 172.6156292 C-32.8342732 170.27147154 -32.94503636 167.92691316 -33.0546875 165.58203125 C-33.13796426 163.91932647 -33.22145406 162.25663234 -33.30514526 160.59394836 C-34.1455222 143.46278807 -34.65357357 126.32289709 -35.06485748 109.17677689 C-35.12609613 106.64213174 -35.18951007 104.10754823 -35.25335693 101.57296753 C-36.0170255 71.04362731 -36.24935875 40.53877439 -36 10 C-33.16526113 8.88228784 -30.32916057 7.76826568 -27.4921875 6.65625 C-26.69965576 6.34333008 -25.90712402 6.03041016 -25.09057617 5.70800781 C-5.41608741 -1.98851518 -5.41608741 -1.98851518 0 0 Z " fill="#000000" transform="translate(36,2)"/>
<path d="M0 0 C0.95326172 -0.00193359 1.90652344 -0.00386719 2.88867188 -0.00585938 C4.41911133 0.0009082 4.41911133 0.0009082 5.98046875 0.0078125 C7.55538086 0.01071289 7.55538086 0.01071289 9.16210938 0.01367188 C20.17740713 0.07278796 31.16948503 0.54937149 42.16796875 1.1328125 C45.21391235 7.56017949 48.00010795 14.05420522 50.54296875 20.6953125 C50.8177002 21.39785156 51.09243164 22.10039063 51.37548828 22.82421875 C52.03389346 24.57200075 52.60837069 26.35093447 53.16796875 28.1328125 C52.83796875 28.7928125 52.50796875 29.4528125 52.16796875 30.1328125 C51.22759766 29.92277588 50.28722656 29.71273926 49.31835938 29.49633789 C38.71402551 27.25044446 28.48336551 26.65677279 17.66796875 26.5703125 C15.28973456 26.54630708 12.91184381 26.51799508 10.53381348 26.47853088 C9.0735682 26.45467137 7.61314324 26.43941195 6.15270996 26.43492126 C-1.39102933 26.31996959 -7.85221127 24.97361915 -13.83203125 20.1328125 C-16.05554255 17.42592918 -15.83203125 15.90078373 -15.83203125 12.3203125 C-15.08987305 7.54546338 -12.55681663 4.14229952 -8.83203125 1.1328125 C-5.84733223 0.17901881 -3.12199733 0.00420148 0 0 Z " fill="#757575" transform="translate(67.83203125,84.8671875)"/>
<path d="M0 0 C0.99 0.33 1.98 0.66 3 1 C1.98679687 1.68835937 1.98679687 1.68835937 0.953125 2.390625 C0.06109375 3.00421875 -0.8309375 3.6178125 -1.75 4.25 C-2.63171875 4.85328125 -3.5134375 5.4565625 -4.421875 6.078125 C-7.04300639 7.93093935 -7.04300639 7.93093935 -9.203125 10.234375 C-11 12 -11 12 -13 12 C-11.47022724 7.99000394 -8.98468218 6.17346767 -5.5625 3.6875 C-4.59441406 2.96949219 -3.62632813 2.25148437 -2.62890625 1.51171875 C-1.32759766 0.76341797 -1.32759766 0.76341797 0 0 Z " fill="#000000" transform="translate(46,40)"/>
</svg>