<?xml version="1.0" encoding="iso-8859-1"?>
<!-- Generator: Adobe Illustrator 25.2.3, SVG Export Plug-In . SVG Version: 6.00 Build 0)  -->
<svg version="1.1" baseProfile="basic" xmlns="http://www.w3.org/2000/svg" xmlns:xlink="http://www.w3.org/1999/xlink" x="0px"
	 y="0px" viewBox="0 0 24 24" xml:space="preserve">
<g id="Layer_10">
</g>
<g id="win10">
</g>
<g id="ssm">
</g>
<g id="mat_2">
</g>
<g id="ios">
</g>
<g id="fluent">
	<path style="fill-rule:evenodd;clip-rule:evenodd;" d="M17.838,3.35L3.724,19.845C3.335,20.299,3.658,21,4.256,21H4.92
		c0.293,0,0.571-0.128,0.761-0.351L19.9,3.99C20.232,3.6,19.955,3,19.443,3h-0.845C18.306,3,18.028,3.128,17.838,3.35z"/>
	<path style="fill-rule:evenodd;clip-rule:evenodd;" d="M7.755,3H4.404C3.757,3,3.378,3.728,3.748,4.259l11.115,15.888
		C15.238,20.681,15.85,21,16.502,21h3.334c0.647,0,1.026-0.728,0.656-1.258L9.395,3.855C9.021,3.319,8.409,3,7.755,3z"/>
</g>
</svg>