<?xml version="1.0" standalone="no"?>
<!DOCTYPE svg PUBLIC "-//W3C//DTD SVG 20010904//EN"
 "http://www.w3.org/TR/2001/REC-SVG-20010904/DTD/svg10.dtd">
<svg version="1.0" xmlns="http://www.w3.org/2000/svg"
 width="225.000000pt" height="225.000000pt" viewBox="0 0 225.000000 225.000000"
 preserveAspectRatio="xMidYMid meet">

<g transform="translate(0.000000,225.000000) scale(0.100000,-0.100000)"
fill="#000000" stroke="none">
<path d="M0 1130 l0 -1120 1125 0 1125 0 0 1120 0 1120 -1125 0 -1125 0 0
-1120z m2059 342 c7 -12 9 -33 5 -45 -7 -24 -251 -277 -259 -269 -3 3 -5 -2
-5 -11 0 -23 159 -199 172 -190 6 3 8 2 5 -3 -3 -6 17 -36 44 -68 56 -66 61
-95 23 -132 -21 -22 -31 -25 -62 -20 -20 3 -42 7 -49 8 -7 1 -10 6 -6 11 7 12
-88 108 -100 100 -6 -4 -7 -1 -3 6 9 14 -22 53 -36 45 -4 -3 -7 -2 -6 3 2 4
-13 28 -32 52 l-35 43 -7 -123 c-3 -68 -7 -128 -9 -134 -1 -5 -22 -11 -46 -13
-35 -2 -48 2 -68 22 l-25 25 0 344 c0 333 1 345 21 371 26 33 79 36 109 6 17
-17 20 -33 20 -122 l0 -102 35 34 c19 18 31 38 28 43 -3 6 -2 7 4 4 13 -8 86
67 76 77 -5 4 -3 6 3 4 17 -5 86 61 78 74 -4 6 -3 9 2 5 5 -3 25 -2 44 2 38 7
57 -4 79 -47z m-1121 30 c10 -10 30 -34 46 -55 16 -20 31 -35 35 -32 4 2 8 -2
8 -9 0 -11 91 -136 99 -136 1 0 33 39 71 88 107 138 132 162 163 162 15 0 38
-9 51 -19 l24 -19 2 -356 c1 -196 -1 -355 -6 -352 -4 3 -19 -5 -32 -18 -24
-22 -26 -23 -59 -7 -57 27 -60 43 -58 268 2 111 0 199 -3 195 -4 -4 -29 -35
-57 -68 -40 -48 -48 -64 -39 -74 9 -10 9 -11 -2 -5 -22 12 -99 9 -116 -5 -8
-7 -15 -10 -15 -6 0 3 0 9 0 14 0 4 5 8 10 8 6 1 12 2 15 3 5 1 -71 98 -105
134 -4 4 -4 -8 -1 -28 3 -20 4 -115 1 -210 -5 -163 -6 -176 -27 -196 -32 -32
-80 -30 -110 5 l-24 28 3 335 3 335 24 19 c29 24 76 24 99 1z m-261 -14 c34
-31 29 -60 -27 -160 -28 -49 -48 -94 -44 -100 4 -6 3 -8 -4 -4 -6 3 -17 -6
-25 -21 -7 -16 -50 -90 -94 -165 l-81 -138 119 0 c115 0 121 -1 146 -26 20
-20 24 -31 19 -57 -12 -63 -26 -67 -245 -67 -185 0 -199 1 -219 20 -13 13 -22
33 -22 51 0 32 9 50 151 294 51 88 103 179 117 203 l24 42 -119 0 c-142 0
-160 4 -178 41 -20 37 -19 51 6 83 l20 26 217 0 c208 0 217 -1 239 -22z m1137
-654 c3 -8 2 -12 -4 -9 -6 3 -10 10 -10 16 0 14 7 11 14 -7z m81 -54 c6 -1 12
-3 14 -5 2 -2 -9 -2 -24 1 -20 3 -25 1 -19 -8 6 -10 3 -9 -9 1 -21 17 -12 34
11 22 9 -5 22 -10 27 -11z m2 -35 c0 -8 -4 -12 -9 -9 -5 3 -6 10 -3 15 9 13
12 11 12 -6z"/>
</g>
</svg>
