<?xml version="1.0" standalone="no"?>
<!DOCTYPE svg PUBLIC "-//W3C//DTD SVG 20010904//EN"
 "http://www.w3.org/TR/2001/REC-SVG-20010904/DTD/svg10.dtd">
<svg version="1.0" xmlns="http://www.w3.org/2000/svg"
 width="225.000000pt" height="225.000000pt" viewBox="0 0 225.000000 225.000000"
 preserveAspectRatio="xMidYMid meet">

<g transform="translate(0.000000,225.000000) scale(0.100000,-0.100000)"
fill="#000000" stroke="none">
<path d="M1040 2217 c-260 -138 -880 -494 -902 -518 l-28 -29 0 -545 0 -545
28 -29 c15 -17 234 -146 487 -288 389 -218 466 -258 500 -258 34 0 113 41 500
258 253 142 472 272 488 288 l27 29 0 545 0 545 -27 29 c-35 37 -932 540 -976
548 -24 3 -48 -4 -97 -30z m284 -369 c151 -42 304 -144 395 -265 28 -37 51
-70 51 -73 0 -3 -72 -47 -160 -97 l-160 -91 -62 62 c-82 81 -149 109 -263 109
-113 0 -181 -28 -261 -107 -119 -120 -145 -292 -66 -439 34 -63 109 -132 180
-165 48 -22 71 -26 148 -26 82 -1 96 2 156 32 43 21 84 52 116 87 28 30 53 55
56 55 3 0 77 -40 165 -88 l160 -88 -26 -40 c-105 -157 -259 -267 -442 -316
-105 -28 -267 -28 -372 0 -150 40 -300 135 -390 246 -194 240 -228 557 -89
825 114 219 325 368 570 402 78 11 210 0 294 -23z"/>
</g>
</svg>
