<?xml version="1.0" encoding="iso-8859-1"?>
<!-- Generator: Adobe Illustrator 25.2.3, SVG Export Plug-In . SVG Version: 6.00 Build 0)  -->
<svg version="1.1" xmlns="http://www.w3.org/2000/svg" xmlns:xlink="http://www.w3.org/1999/xlink" x="0px" y="0px"
	 viewBox="0 0 50 50" style="enable-background:new 0 0 50 50;" xml:space="preserve">
<g id="Layer_1">
	<g>
	</g>
	<path style="fill:none;stroke:#000000;stroke-width:2;stroke-linecap:round;stroke-linejoin:round;stroke-miterlimit:10;" d="
		M26,18h-7.5c-4.142,0-7.5-3.358-7.5-7.5l0,0C11,6.358,14.358,3,18.5,3H26V18z"/>
	<path style="fill:none;stroke:#000000;stroke-width:2;stroke-linecap:round;stroke-linejoin:round;stroke-miterlimit:10;" d="
		M26,33h-7.5c-4.142,0-7.5-3.358-7.5-7.5l0,0c0-4.142,3.358-7.5,7.5-7.5H26V33z"/>
	<path style="fill:none;stroke:#000000;stroke-width:2;stroke-linecap:round;stroke-linejoin:round;stroke-miterlimit:10;" d="
		M18.5,48L18.5,48c-4.142,0-7.5-3.358-7.5-7.5l0,0c0-4.142,3.358-7.5,7.5-7.5H26v7.5C26,44.642,22.642,48,18.5,48z"/>
	<path style="fill:none;stroke:#000000;stroke-width:2;stroke-linecap:round;stroke-linejoin:round;stroke-miterlimit:10;" d="
		M33.5,18H26V3h7.5c4.142,0,7.5,3.358,7.5,7.5l0,0C41,14.642,37.642,18,33.5,18z"/>
	
		<circle style="fill:none;stroke:#000000;stroke-width:2;stroke-linecap:round;stroke-linejoin:round;stroke-miterlimit:10;" cx="34" cy="26" r="7"/>
</g>
<g id="Layer_2">
</g>
</svg>