<?xml version="1.0" encoding="iso-8859-1"?>
<!-- Generator: Adobe Illustrator 27.0.0, SVG Export Plug-In . SVG Version: 6.00 Build 0)  -->
<svg version="1.1" baseProfile="basic" id="&#x421;&#x43B;&#x43E;&#x439;_1"
	 xmlns="http://www.w3.org/2000/svg" xmlns:xlink="http://www.w3.org/1999/xlink" x="0px" y="0px" viewBox="0 0 24 24"
	 xml:space="preserve">
<g>
	<path d="M23.395,7.081c-0.488-0.207-1.053-0.002-1.29,0.472c-0.224,0.448-0.523,0.723-0.914,0.838
		c-0.612,0.183-1.343-0.052-1.685-0.253c-0.451-0.265-0.974-0.667-1.527-1.092C16.214,5.688,14.018,4,11,4
		C8.586,4,7.346,5.239,5.293,7.293C4.902,7.684,4.899,8.32,5.29,8.71C5.67,9.092,6.28,9.104,6.672,8.74
		c0.01-0.009,0.02-0.019,0.03-0.028c0.552-0.426,4.03-0.012,5.55,1.196C14.511,11.703,16.142,13,18,13
		c2.659,0,4.879-1.741,5.94-4.658C24.121,7.844,23.882,7.291,23.395,7.081z"/>
	<path d="M18.395,14.081c-0.488-0.207-1.053-0.002-1.29,0.472c-0.224,0.448-0.523,0.723-0.914,0.838
		c-0.612,0.18-1.343-0.052-1.685-0.253c-0.451-0.265-0.974-0.667-1.527-1.092C11.214,12.688,9.018,11,6,11
		c-2.414,0-3.654,1.239-5.707,3.293c-0.391,0.391-0.394,1.027-0.003,1.417c0.38,0.382,0.991,0.395,1.383,0.03
		c0.01-0.009,0.02-0.019,0.03-0.028c0.551-0.426,4.031-0.012,5.55,1.196C9.511,18.703,11.142,20,13,20
		c2.659,0,4.879-1.741,5.94-4.658C19.121,14.844,18.882,14.291,18.395,14.081z"/>
</g>
</svg>