<?xml version="1.0" standalone="no"?>
<!DOCTYPE svg PUBLIC "-//W3C//DTD SVG 20010904//EN"
 "http://www.w3.org/TR/2001/REC-SVG-20010904/DTD/svg10.dtd">
<svg version="1.0" xmlns="http://www.w3.org/2000/svg"
 width="225.000000pt" height="225.000000pt" viewBox="0 0 225.000000 225.000000"
 preserveAspectRatio="xMidYMid meet">

<g transform="translate(0.000000,225.000000) scale(0.100000,-0.100000)"
fill="#000000" stroke="none">
<path d="M1178 1432 l-3 -807 -33 -67 c-40 -81 -102 -139 -181 -169 -74 -28
-195 -23 -259 10 -66 34 -128 96 -159 160 -23 47 -28 69 -28 136 0 91 26 161
84 228 67 76 221 125 314 99 l37 -11 -2 187 -3 187 -120 -1 c-139 -2 -234 -27
-344 -91 -83 -49 -195 -161 -244 -244 -219 -373 -43 -853 368 -1003 105 -38
282 -48 400 -21 192 42 366 177 459 355 71 136 70 124 76 653 l5 477 54 -36
c120 -81 279 -136 434 -150 l77 -7 0 181 0 181 -37 6 c-147 22 -206 44 -299
110 -115 83 -193 208 -222 359 l-17 86 -177 0 -177 0 -3 -808z"/>
</g>
</svg>
